<svg width="50" height="45" viewBox="0 0 50 45" fill="none" xmlns="http://www.w3.org/2000/svg">
<path d="M45.8438 26.4831L49.9473 8.20187C50.2436 6.88192 49.2527 5.625 47.9158 5.625H13.8201L13.0245 1.68662C12.8262 0.704971 11.9731 0 10.9834 0H2.08333C0.932726 0 0 0.944385 0 2.10938V3.51562C0 4.68062 0.932726 5.625 2.08333 5.625H8.14957L14.2475 35.8097C12.7886 36.6592 11.8056 38.2519 11.8056 40.0781C11.8056 42.7964 13.9819 45 16.6667 45C19.3514 45 21.5278 42.7964 21.5278 40.0781C21.5278 38.7005 20.9681 37.4559 20.0674 36.5625H38.2659C37.3652 37.4559 36.8056 38.7005 36.8056 40.0781C36.8056 42.7964 38.9819 45 41.6667 45C44.3514 45 46.5278 42.7964 46.5278 40.0781C46.5278 38.1294 45.409 36.4454 43.7865 35.648L44.2655 33.5144C44.5617 32.1944 43.5708 30.9375 42.2339 30.9375H18.9338L18.3656 28.125H43.8122C44.785 28.125 45.6282 27.4435 45.8438 26.4831Z" fill="white"/>
</svg>
