<svg width="463" height="48" viewBox="0 0 463 48" fill="none" xmlns="http://www.w3.org/2000/svg">
<path d="M32.2488 22.384H45.3688V41.328C42.7234 43.1627 39.6514 44.5707 36.1528 45.552C32.6541 46.5333 29.2194 47.024 25.8488 47.024C21.0701 47.024 16.7821 46.0427 12.9848 44.08C9.18742 42.0747 6.20075 39.3013 4.02475 35.76C1.89142 32.176 0.82475 28.1227 0.82475 23.6C0.82475 19.0773 1.89142 15.0453 4.02475 11.504C6.20075 7.92 9.20875 5.14666 13.0488 3.184C16.9314 1.17867 21.3048 0.175999 26.1688 0.175999C30.5634 0.175999 34.4888 0.922665 37.9448 2.416C41.4434 3.86666 44.3448 6 46.6488 8.816L36.9848 17.328C34.1688 14.0427 30.8194 12.4 26.9368 12.4C23.6088 12.4 20.9634 13.4027 19.0008 15.408C17.0381 17.4133 16.0568 20.144 16.0568 23.6C16.0568 26.9707 17.0168 29.68 18.9368 31.728C20.8994 33.776 23.5021 34.8 26.7448 34.8C28.6648 34.8 30.4994 34.4373 32.2488 33.712V22.384ZM82.3323 38.192H65.3083L62.3003 46H46.9402L66.5243 1.2H81.3723L100.956 46H85.3403L82.3323 38.192ZM78.1723 27.312L73.8203 16.048L69.4683 27.312H78.1723ZM143.367 46L143.239 25.584L133.511 41.968H126.855L117.127 26.288V46H103.367V1.2H115.783L130.375 25.072L144.583 1.2H156.999L157.127 46H143.367ZM201.677 34.608V46H164.429V1.2H200.845V12.592H179.277V17.84H198.221V28.72H179.277V34.608H201.677ZM266.679 46L266.551 25.584L256.823 41.968H250.167L240.439 26.288V46H226.679V1.2H239.095L253.687 25.072L267.895 1.2H280.311L280.439 46H266.679ZM318.27 38.192H301.246L298.238 46H282.878L302.462 1.2H317.31L336.894 46H321.278L318.27 38.192ZM314.11 27.312L309.758 16.048L305.406 27.312H314.11ZM383.464 1.2V46H371.048L354.024 25.648V46H339.304V1.2H351.72L368.744 21.552V1.2H383.464ZM390.742 1.2H405.846V46H390.742V1.2ZM443.645 38.192H426.621L423.613 46H408.253L427.837 1.2H442.685L462.269 46H446.653L443.645 38.192ZM439.485 27.312L435.133 16.048L430.781 27.312H439.485Z" fill="white"/>
</svg>
